<svg>


<symbol xmlns="http://www.w3.org/2000/svg" viewBox="0 0 24 25" id="facebook">
    <path d="M24 12.5733C24 5.90541 18.6274 0.5 12 0.5C5.37258 0.5 0 5.90541 0 12.5733C0 18.5995 4.38823 23.5943 10.125 24.5V16.0633H7.07813V12.5733H10.125V9.91343C10.125 6.88755 11.9165 5.21615 14.6576 5.21615C15.9705 5.21615 17.3438 5.45195 17.3438 5.45195V8.42313H15.8306C14.3399 8.42313 13.875 9.35379 13.875 10.3086V12.5733H17.2031L16.6711 16.0633H13.875V24.5C19.6118 23.5943 24 18.5995 24 12.5733Z" fill="white"></path>
</symbol>

<symbol xmlns="http://www.w3.org/2000/svg" viewBox="0 0 21 47" id="Slash">
    <path fill-rule="evenodd" clip-rule="evenodd" d="M15.1752 0H21L5.82483 47H0L15.1752 0Z" fill="#F0145A"></path>
</symbol>

<svg width="0" height="0" class="hidden">
<symbol fill="none" xmlns="http://www.w3.org/2000/svg" viewBox="0 0 39 38" id="FacebookFooter">
    <path d="M38.5 19.1161C38.5 8.55857 29.9934 0 19.5 0C9.00658 0 0.5 8.55857 0.5 19.1161C0.5 28.6575 7.44803 36.5659 16.5312 38V24.6419H11.707V19.1161H16.5312V14.9046C16.5312 10.1136 19.3678 7.46723 23.7078 7.46723C25.7866 7.46723 27.9609 7.84059 27.9609 7.84059V12.545H25.5651C23.2048 12.545 22.4688 14.0185 22.4688 15.5302V19.1161H27.7383L26.8959 24.6419H22.4688V38C31.552 36.5659 38.5 28.6575 38.5 19.1161Z" fill="#24A3FF"></path>
</symbol>
</svg>

</svg>